<mxfile host="app.diagrams.net" modified="2024-06-10T13:51:48.468Z" agent="Mozilla/5.0 (Macintosh; Intel Mac OS X 10_15_7) AppleWebKit/605.1.15 (KHTML, like Gecko) Version/17.5 Safari/605.1.15" etag="cOkKOyOEp_jKhEp6yKU-" version="24.5.2" type="github">
  <diagram name="페이지-1" id="6K8wG0IrYezgLxQWWY9a">
    <mxGraphModel dx="954" dy="675" grid="1" gridSize="10" guides="1" tooltips="1" connect="1" arrows="1" fold="1" page="1" pageScale="1" pageWidth="827" pageHeight="1169" math="0" shadow="0">
      <root>
        <mxCell id="0" />
        <mxCell id="1" parent="0" />
        <mxCell id="5-vfyIWQsZSFRKQ7YCwL-6" style="edgeStyle=orthogonalEdgeStyle;rounded=0;orthogonalLoop=1;jettySize=auto;html=1;" edge="1" parent="1" source="5-vfyIWQsZSFRKQ7YCwL-1" target="5-vfyIWQsZSFRKQ7YCwL-3">
          <mxGeometry relative="1" as="geometry" />
        </mxCell>
        <mxCell id="5-vfyIWQsZSFRKQ7YCwL-1" value="Start" style="rounded=1;whiteSpace=wrap;html=1;arcSize=50;" vertex="1" parent="1">
          <mxGeometry x="60" y="80" width="120" height="60" as="geometry" />
        </mxCell>
        <mxCell id="5-vfyIWQsZSFRKQ7YCwL-2" value="End" style="rounded=1;whiteSpace=wrap;html=1;arcSize=50;" vertex="1" parent="1">
          <mxGeometry x="260" y="460" width="120" height="60" as="geometry" />
        </mxCell>
        <mxCell id="5-vfyIWQsZSFRKQ7YCwL-7" style="edgeStyle=orthogonalEdgeStyle;rounded=0;orthogonalLoop=1;jettySize=auto;html=1;" edge="1" parent="1" source="5-vfyIWQsZSFRKQ7YCwL-3" target="5-vfyIWQsZSFRKQ7YCwL-4">
          <mxGeometry relative="1" as="geometry" />
        </mxCell>
        <mxCell id="5-vfyIWQsZSFRKQ7YCwL-3" value="n" style="shape=hexagon;perimeter=hexagonPerimeter2;whiteSpace=wrap;html=1;fixedSize=1;" vertex="1" parent="1">
          <mxGeometry x="60" y="180" width="120" height="60" as="geometry" />
        </mxCell>
        <mxCell id="5-vfyIWQsZSFRKQ7YCwL-8" style="edgeStyle=orthogonalEdgeStyle;rounded=0;orthogonalLoop=1;jettySize=auto;html=1;entryX=0;entryY=0.5;entryDx=0;entryDy=0;" edge="1" parent="1" source="5-vfyIWQsZSFRKQ7YCwL-4" target="5-vfyIWQsZSFRKQ7YCwL-5">
          <mxGeometry relative="1" as="geometry">
            <Array as="points">
              <mxPoint x="220" y="310" />
              <mxPoint x="220" y="110" />
            </Array>
          </mxGeometry>
        </mxCell>
        <mxCell id="5-vfyIWQsZSFRKQ7YCwL-4" value="n" style="shape=parallelogram;perimeter=parallelogramPerimeter;whiteSpace=wrap;html=1;fixedSize=1;" vertex="1" parent="1">
          <mxGeometry x="60" y="280" width="120" height="60" as="geometry" />
        </mxCell>
        <mxCell id="5-vfyIWQsZSFRKQ7YCwL-13" style="edgeStyle=orthogonalEdgeStyle;rounded=0;orthogonalLoop=1;jettySize=auto;html=1;" edge="1" parent="1" source="5-vfyIWQsZSFRKQ7YCwL-5" target="5-vfyIWQsZSFRKQ7YCwL-9">
          <mxGeometry relative="1" as="geometry" />
        </mxCell>
        <mxCell id="5-vfyIWQsZSFRKQ7YCwL-5" value="" style="ellipse;whiteSpace=wrap;html=1;aspect=fixed;" vertex="1" parent="1">
          <mxGeometry x="310" y="100" width="20" height="20" as="geometry" />
        </mxCell>
        <mxCell id="5-vfyIWQsZSFRKQ7YCwL-14" style="edgeStyle=orthogonalEdgeStyle;rounded=0;orthogonalLoop=1;jettySize=auto;html=1;" edge="1" parent="1" source="5-vfyIWQsZSFRKQ7YCwL-9" target="5-vfyIWQsZSFRKQ7YCwL-11">
          <mxGeometry relative="1" as="geometry" />
        </mxCell>
        <mxCell id="5-vfyIWQsZSFRKQ7YCwL-9" value="n" style="shape=document;whiteSpace=wrap;html=1;boundedLbl=1;" vertex="1" parent="1">
          <mxGeometry x="260" y="140" width="120" height="70" as="geometry" />
        </mxCell>
        <mxCell id="5-vfyIWQsZSFRKQ7YCwL-15" style="edgeStyle=orthogonalEdgeStyle;rounded=0;orthogonalLoop=1;jettySize=auto;html=1;" edge="1" parent="1" source="5-vfyIWQsZSFRKQ7YCwL-11" target="5-vfyIWQsZSFRKQ7YCwL-12">
          <mxGeometry relative="1" as="geometry" />
        </mxCell>
        <mxCell id="5-vfyIWQsZSFRKQ7YCwL-11" value="n -= 1" style="rounded=0;whiteSpace=wrap;html=1;" vertex="1" parent="1">
          <mxGeometry x="260" y="240" width="120" height="60" as="geometry" />
        </mxCell>
        <mxCell id="5-vfyIWQsZSFRKQ7YCwL-16" value="T" style="edgeStyle=orthogonalEdgeStyle;rounded=0;orthogonalLoop=1;jettySize=auto;html=1;" edge="1" parent="1" source="5-vfyIWQsZSFRKQ7YCwL-12" target="5-vfyIWQsZSFRKQ7YCwL-2">
          <mxGeometry relative="1" as="geometry" />
        </mxCell>
        <mxCell id="5-vfyIWQsZSFRKQ7YCwL-17" value="F" style="edgeStyle=orthogonalEdgeStyle;rounded=0;orthogonalLoop=1;jettySize=auto;html=1;entryX=1;entryY=0.5;entryDx=0;entryDy=0;" edge="1" parent="1" source="5-vfyIWQsZSFRKQ7YCwL-12" target="5-vfyIWQsZSFRKQ7YCwL-5">
          <mxGeometry relative="1" as="geometry">
            <Array as="points">
              <mxPoint x="440" y="370" />
              <mxPoint x="440" y="110" />
            </Array>
          </mxGeometry>
        </mxCell>
        <mxCell id="5-vfyIWQsZSFRKQ7YCwL-12" value="n == 0" style="rhombus;whiteSpace=wrap;html=1;" vertex="1" parent="1">
          <mxGeometry x="255" y="330" width="130" height="80" as="geometry" />
        </mxCell>
      </root>
    </mxGraphModel>
  </diagram>
</mxfile>
